Simulation
nRows=35
nColumns=15
endheader
time  TH_x TH_y TH_z SC_y  SC_z  SC_x  AC_y  AC_z  AC_x  GH_y  GH_z  GH_yy  EL_x  PS_y
5.35  0.000000  0.000000  0.000000  -17.85205649926022  5.145860088942922  3.8480201875082423  55.077747854949585  15.795152543593858  5.23532524538301  43.28254031733331  47.61013844998502  -50.11021279808052  39.57456709650968  120.000000
5.390225563909774  0.000000  0.000000  0.000000  -17.632535612857584  5.278534487674301  4.218274359414957  55.16355352355023  15.527750704243768  5.265627274998471  44.38654319360597  48.49328054905165  -49.452634084170036  38.32473044932819  120.000000
5.430451127819548  0.000000  0.000000  0.000000  -17.432734067001775  5.408129287445509  4.603507405751093  55.256724703031416  15.235195760123544  5.27753236599971  45.44187890943067  49.35266140562926  -48.81759705124828  37.10087056827397  120.000000
5.470676691729323  0.000000  0.000000  0.000000  -17.254642528011534  5.534755268738988  4.996901002422663  55.352158921918644  14.923134866859844  5.272056692518674  46.4237347199241  50.17126250555349  -48.21998186313721  35.9549907384873  120.000000
5.510902255639097  0.000000  0.000000  0.000000  -17.098823790341253  5.657849758833369  5.390757516085449  55.44391929745114  14.598095665851437  5.249655891611648  47.30628686793807  50.93334217661162  -47.67356380590448  34.939882065143394  120.000000
5.5511278195488725  0.000000  0.000000  0.000000  -16.964642566379442  5.77663466349886  5.776442089132931  55.525538248008594  14.266948983152377  5.2106942213675005  48.06467388539262  51.62504241677397  -47.19091970098409  34.10857599332261  120.000000
5.591353383458647  0.000000  0.000000  0.000000  -16.850916471795625  5.89011982642358  6.1448983331049085  55.59068942552643  13.93678527244299  5.1557475983196275  48.67716262789665  52.235309319987515  -46.783058822959816  33.5113900045967  120.000000
5.631578947368421  0.000000  0.000000  0.000000  -16.756397105891626  5.9976092980227325  6.487661934963305  55.63406616138867  13.615026761929204  5.086246517981964  49.127149978162315  52.75674940541175  -46.45843818591789  33.18993630323071  120.000000
5.671804511278196  0.000000  0.000000  0.000000  -16.679605816861667  6.09857988598701  6.798181136948458  55.65242589436727  13.309688668666995  5.004877285100605  49.4046441803951  53.18608214200868  -46.22178528165425  33.170672633866474  120.000000
5.71203007518797  0.000000  0.000000  0.000000  -16.619048235685625  6.192378227484828  7.072512027959525  55.64527146734309  13.029094223542794  4.915694220923528  49.50731018819896  53.524252406295695  -46.07416220939707  33.46280162550642  120.000000
5.752255639097744  0.000000  0.000000  0.000000  -16.573828650621792  6.278628983609696  7.309196635902119  55.614536321865295  12.781124383903304  4.823973109627503  49.440328375790024  53.775914652838644  -46.01393407377763  34.06181496666889  120.000000
5.792481203007519  0.000000  0.000000  0.000000  -16.544164233336925  6.357487268547588  7.5089476985427694  55.56381183724399  12.57260516636954  4.735638721337409  49.21497845654674  53.94848056566339  -46.03777642049385  34.955198977040304  120.000000
5.832706766917293  0.000000  0.000000  0.000000  -16.531570183612807  6.429677501241867  7.6743361128578655  55.497637083439024  12.408933970196227  4.656646450938373  48.84695913461151  54.05121196359504  -46.14179608072931  36.12709046647002  120.000000
5.872932330827068  0.000000  0.000000  0.000000  -16.53868544689533  6.496424351884624  7.809560203804086  55.42094050641118  12.294001063758671  4.592593365473259  48.35474119089321  54.09444183458615  -46.322214867089315  37.56109170439124  120.000000
5.913157894736842  0.000000  0.000000  0.000000  -16.56907465078502  6.559406176501928  7.920357902350812  55.33861645192576  12.230308057102212  4.5485142341798595  47.75824960484699  54.08903052588169  -46.57569128128129  39.24153986289064  120.000000
5.953383458646616  0.000000  0.000000  0.000000  -16.626853372456743  6.620582878778047  8.014029201735545  55.25534895994214  12.219208112241233  4.528761665362399  47.07787876547764  54.04598368886449  -46.899248527793105  41.153675848437636  120.000000
5.993609022556391  0.000000  0.000000  0.000000  -16.71595776541328  6.681833114122153  8.09937287194319  55.17552597997388  12.261130398162116  4.536955702469085  46.33396019030566  53.97616444389161  -47.290044986077454  43.28331588020383  120.000000
6.033834586466165  0.000000  0.000000  0.000000  -16.839698582507097  6.744788655896971  8.186513336808845  55.103264345671384  12.35562317531489  4.576057694556833  45.54658988219678  53.88999215996923  -47.74507419806874  45.616637854008  120.000000
6.0740601503759395  0.000000  0.000000  0.000000  -17.000593983030566  6.810668352689808  8.286588585116649  55.042335831668744  12.50133553628322  4.648302033791264  44.73536028962966  53.797074820943486  -48.2606980925304  48.14021124084603  120.000000
6.114285714285714  0.000000  0.000000  0.000000  -17.199821689181892  6.880196616593044  8.411134962582219  54.995778077079116  12.69595669753368  4.755131173821567  43.9185606821062  53.705708849414634  -48.83230823054364  50.840279720622746  120.000000
6.154511278195488  0.000000  0.000000  0.000000  -17.436894480769563  6.953654002824583  8.571159909402901  54.965434751937586  12.936076831931576  4.897332537432612  43.112019837982906  53.62233785820901  -49.45387799491586  53.70159784572273  120.000000
6.194736842105263  0.000000  0.000000  0.000000  -17.710117548315143  7.03103068427506  8.77603320668439  54.95170212366267  13.21693147361862  5.07505788462817  42.328253906401244  53.55134300183606  -50.11782038092518  56.707078507977705  120.000000
6.234962406015037  0.000000  0.000000  0.000000  -18.016832297258627  7.1122781659897925  9.032512012688208  54.95339109462979  13.532157431615587  5.287887328071983  41.57609466381169  53.49514660313265  -50.81526296860169  59.837227637121906  120.000000
6.275187969924812  0.000000  0.000000  0.000000  -18.35331674927468  7.197368575421128  9.344160765612529  54.96779029103386  13.873915269851638  5.535041490944424  40.86082578751643  53.45426269777815  -51.536351904201375  63.06952724008252  120.000000
6.315413533834587  0.000000  0.000000  0.000000  -18.715118160284064  7.286198676565889  9.711181122690247  54.99121668639038  14.233409404491022  5.815452681650098  40.18484128206703  53.42738008922349  -52.27055601054563  66.37893345396492  120.000000
6.355639097744361  0.000000  0.000000  0.000000  -19.097587357135428  7.378520995163838  10.130612977470427  55.019789908114994  14.601517319491998  6.127795137577039  39.54863369979672  53.41167921337752  -53.0069320330348  69.73876119704545  120.000000
6.3958646616541355  0.000000  0.000000  0.000000  -19.496107332294514  7.473810766999071  10.596805647438115  55.050170376379725  14.969484785892313  6.470449622383644  38.95175876598963  53.403215514154006  -53.73453507336233  73.12145845632857  120.000000
6.43609022556391  0.000000  0.000000  0.000000  -19.90622844630822  7.571164626278166  11.10203058488797  55.080028559129865  15.329570085837421  6.841345045471165  38.393416633470366  53.39731263529879  -54.44279180109926  76.49922537445246  120.000000
6.476315789473684  0.000000  0.000000  0.000000  -20.324053012072063  7.669389719039351  11.637208428774288  55.10814642514313  15.675453994502538  7.237695321467448  37.872590118112605  53.38893248211053  -55.1215894632455  79.84434332494303  120.000000
6.516541353383459  0.000000  0.000000  0.000000  -20.746241548676178  7.766973369139812  12.192413744593178  55.13446758593951  16.00235303884811  7.655688955370304  37.38813622983948  53.372972625891194  -55.7614053855699  83.12913628595291  120.000000
6.556766917293233  0.000000  0.000000  0.000000  -21.169074401142147  7.861968511727123  12.756931145825614  55.16027554729394  16.30673676721616  8.090255056691296  36.93928015394893  53.34447351591679  -56.35406632898661  86.32575340709145  120.000000
6.596992481203007  0.000000  0.000000  0.000000  -21.587955260815246  7.952168311134864  13.319338355278356  55.18822105127829  16.585999249289298  8.535021426879617  36.526033577082515  53.29901106377502  -56.893374382339445  89.40594610874912  120.000000
6.637218045112782  0.000000  0.000000  0.000000  -21.99818025884293  8.035758615699232  13.86818165087187  55.22171799282122  16.838457497407862  8.982667952423835  36.148679673569454  53.23328893533456  -57.37480929203374  92.3410108045618  120.000000
6.677443609022556  0.000000  0.000000  0.000000  -22.395240957404933  8.111257876188507  14.393029902447077  55.263890662385464  17.063818688159312  9.425122625088855  35.80668931811282  53.14559296348091  -57.795076862629486  95.10266855077349  120.000000
6.717669172932331  0.000000  0.000000  0.000000  -22.774674026190922  8.176883929943425  14.885115777867561  55.31692439262967  17.263311178647427  9.853716216646804  35.4987199294162  53.035942038991315  -58.15234401072494  97.66521374205793  120.000000
